<mxfile host="app.diagrams.net" agent="Mozilla/5.0 (Windows NT 10.0; Win64; x64) AppleWebKit/537.36 (KHTML, like Gecko) Chrome/131.0.0.0 Safari/537.36" version="26.0.5">
  <diagram name="Page-1" id="Lh-T_gdKzuXXyjlzGfSb">
    <mxGraphModel dx="587" dy="539" grid="1" gridSize="10" guides="1" tooltips="1" connect="1" arrows="1" fold="1" page="1" pageScale="1" pageWidth="827" pageHeight="1169" math="0" shadow="0">
      <root>
        <mxCell id="0" />
        <mxCell id="1" parent="0" />
        <mxCell id="hWasK9_cLOe1ZShyX94d-3" value="Rule Flow" style="text;html=1;align=left;verticalAlign=middle;whiteSpace=wrap;rounded=0;" vertex="1" parent="1">
          <mxGeometry x="120" y="460" width="60" height="30" as="geometry" />
        </mxCell>
        <mxCell id="hWasK9_cLOe1ZShyX94d-4" value="Rule Creation Flow" style="text;html=1;align=left;verticalAlign=middle;whiteSpace=wrap;rounded=0;" vertex="1" parent="1">
          <mxGeometry x="120" y="720" width="130" height="30" as="geometry" />
        </mxCell>
        <mxCell id="hWasK9_cLOe1ZShyX94d-9" style="edgeStyle=orthogonalEdgeStyle;rounded=0;orthogonalLoop=1;jettySize=auto;html=1;" edge="1" parent="1" source="hWasK9_cLOe1ZShyX94d-6" target="hWasK9_cLOe1ZShyX94d-7">
          <mxGeometry relative="1" as="geometry" />
        </mxCell>
        <mxCell id="hWasK9_cLOe1ZShyX94d-6" value="მონაცემების შეგროვება&amp;nbsp; input object-ისთვის" style="rounded=1;whiteSpace=wrap;html=1;fillColor=none;" vertex="1" parent="1">
          <mxGeometry x="250" y="555" width="120" height="60" as="geometry" />
        </mxCell>
        <mxCell id="hWasK9_cLOe1ZShyX94d-10" style="edgeStyle=orthogonalEdgeStyle;rounded=0;orthogonalLoop=1;jettySize=auto;html=1;" edge="1" parent="1" source="hWasK9_cLOe1ZShyX94d-7" target="hWasK9_cLOe1ZShyX94d-8">
          <mxGeometry relative="1" as="geometry" />
        </mxCell>
        <mxCell id="hWasK9_cLOe1ZShyX94d-7" value="შესაბამისი რულების მოსელექტება" style="rounded=1;whiteSpace=wrap;html=1;fillColor=none;" vertex="1" parent="1">
          <mxGeometry x="430" y="555" width="120" height="60" as="geometry" />
        </mxCell>
        <mxCell id="hWasK9_cLOe1ZShyX94d-14" style="edgeStyle=orthogonalEdgeStyle;rounded=0;orthogonalLoop=1;jettySize=auto;html=1;entryX=0;entryY=0.5;entryDx=0;entryDy=0;" edge="1" parent="1" source="hWasK9_cLOe1ZShyX94d-8" target="hWasK9_cLOe1ZShyX94d-13">
          <mxGeometry relative="1" as="geometry" />
        </mxCell>
        <mxCell id="hWasK9_cLOe1ZShyX94d-8" value="input object-ის რულების მიმართ შემოწმება" style="rounded=1;whiteSpace=wrap;html=1;fillColor=none;" vertex="1" parent="1">
          <mxGeometry x="630" y="555" width="120" height="60" as="geometry" />
        </mxCell>
        <mxCell id="hWasK9_cLOe1ZShyX94d-11" value="რულების მოსელექტება client type და bank მიხედვით" style="rounded=0;whiteSpace=wrap;html=1;fillColor=#fad7ac;strokeColor=#b46504;" vertex="1" parent="1">
          <mxGeometry x="450" y="500" width="140" height="60" as="geometry" />
        </mxCell>
        <mxCell id="hWasK9_cLOe1ZShyX94d-13" value="" style="ellipse;whiteSpace=wrap;html=1;aspect=fixed;fillColor=none;" vertex="1" parent="1">
          <mxGeometry x="792" y="567" width="35" height="35" as="geometry" />
        </mxCell>
        <mxCell id="hWasK9_cLOe1ZShyX94d-16" style="edgeStyle=orthogonalEdgeStyle;rounded=0;orthogonalLoop=1;jettySize=auto;html=1;" edge="1" parent="1" source="hWasK9_cLOe1ZShyX94d-15" target="hWasK9_cLOe1ZShyX94d-6">
          <mxGeometry relative="1" as="geometry" />
        </mxCell>
        <mxCell id="hWasK9_cLOe1ZShyX94d-15" value="" style="ellipse;whiteSpace=wrap;html=1;aspect=fixed;fillColor=none;" vertex="1" parent="1">
          <mxGeometry x="150" y="567.5" width="35" height="35" as="geometry" />
        </mxCell>
        <mxCell id="hWasK9_cLOe1ZShyX94d-17" value="დაფეილებული რულების სიის დაბრუნება" style="rounded=0;whiteSpace=wrap;html=1;fillColor=#fad7ac;strokeColor=#b46504;" vertex="1" parent="1">
          <mxGeometry x="800" y="507" width="140" height="60" as="geometry" />
        </mxCell>
        <mxCell id="hWasK9_cLOe1ZShyX94d-30" style="edgeStyle=orthogonalEdgeStyle;rounded=0;orthogonalLoop=1;jettySize=auto;html=1;entryX=0;entryY=0.5;entryDx=0;entryDy=0;" edge="1" parent="1" source="hWasK9_cLOe1ZShyX94d-20" target="hWasK9_cLOe1ZShyX94d-27">
          <mxGeometry relative="1" as="geometry" />
        </mxCell>
        <mxCell id="hWasK9_cLOe1ZShyX94d-20" value="რულის შექმნა" style="rounded=1;whiteSpace=wrap;html=1;fillColor=none;" vertex="1" parent="1">
          <mxGeometry x="250" y="780" width="120" height="60" as="geometry" />
        </mxCell>
        <mxCell id="hWasK9_cLOe1ZShyX94d-21" style="edgeStyle=orthogonalEdgeStyle;rounded=0;orthogonalLoop=1;jettySize=auto;html=1;" edge="1" parent="1" source="hWasK9_cLOe1ZShyX94d-22" target="hWasK9_cLOe1ZShyX94d-20">
          <mxGeometry relative="1" as="geometry" />
        </mxCell>
        <mxCell id="hWasK9_cLOe1ZShyX94d-22" value="" style="ellipse;whiteSpace=wrap;html=1;aspect=fixed;fillColor=none;" vertex="1" parent="1">
          <mxGeometry x="150" y="792.5" width="35" height="35" as="geometry" />
        </mxCell>
        <mxCell id="hWasK9_cLOe1ZShyX94d-32" style="edgeStyle=orthogonalEdgeStyle;rounded=0;orthogonalLoop=1;jettySize=auto;html=1;" edge="1" parent="1" source="hWasK9_cLOe1ZShyX94d-27" target="hWasK9_cLOe1ZShyX94d-31">
          <mxGeometry relative="1" as="geometry" />
        </mxCell>
        <mxCell id="hWasK9_cLOe1ZShyX94d-27" value="???დასტურის პროცესი" style="rounded=1;whiteSpace=wrap;html=1;fillColor=none;" vertex="1" parent="1">
          <mxGeometry x="414" y="780" width="120" height="60" as="geometry" />
        </mxCell>
        <mxCell id="hWasK9_cLOe1ZShyX94d-31" value="" style="ellipse;whiteSpace=wrap;html=1;aspect=fixed;fillColor=none;" vertex="1" parent="1">
          <mxGeometry x="595" y="792.5" width="35" height="35" as="geometry" />
        </mxCell>
        <mxCell id="hWasK9_cLOe1ZShyX94d-33" value="დასტური ჭირდება თუ არა უკვე არსებულის ედიტს (ედიტის დროს არა აქტიური ხდება თუ ედიტის დროს დრაფტ ვერსია იქმნება)?&lt;br&gt;თუ დარეჯექტდა რა ხდება (რული იშლება, გამოსწორების პროცესია იწყება)?&lt;br&gt;&lt;div&gt;&lt;br&gt;&lt;/div&gt;" style="rounded=0;whiteSpace=wrap;html=1;fillColor=#fad7ac;strokeColor=#b46504;align=left;" vertex="1" parent="1">
          <mxGeometry x="450" y="727" width="510" height="60" as="geometry" />
        </mxCell>
      </root>
    </mxGraphModel>
  </diagram>
</mxfile>
